<svg width="16" height="16" viewBox="0 0 16 16" fill="none" xmlns="http://www.w3.org/2000/svg">
<g id="bx-calendar.svg">
<path id="Vector" d="M4.6665 7.33331H5.99984V8.66665H4.6665V7.33331ZM4.6665 9.99998H5.99984V11.3333H4.6665V9.99998ZM7.33317 7.33331H8.6665V8.66665H7.33317V7.33331ZM7.33317 9.99998H8.6665V11.3333H7.33317V9.99998ZM9.99984 7.33331H11.3332V8.66665H9.99984V7.33331ZM9.99984 9.99998H11.3332V11.3333H9.99984V9.99998Z" fill="#5D5D75"/>
<path id="Vector_2" d="M3.33333 14.6666H12.6667C13.402 14.6666 14 14.0686 14 13.3333V3.99998C14 3.26465 13.402 2.66665 12.6667 2.66665H11.3333V1.33331H10V2.66665H6V1.33331H4.66667V2.66665H3.33333C2.598 2.66665 2 3.26465 2 3.99998V13.3333C2 14.0686 2.598 14.6666 3.33333 14.6666ZM12.6667 5.33331L12.6673 13.3333H3.33333V5.33331H12.6667Z" fill="#5D5D75"/>
</g>
</svg>
